# xmcd CD database file
#
# Track frame offsets:
#	150
#	25154
#	36360
#	47995
#	67068
#	77043
#	91236
#	101996
#	118975
#	141096
#	158532
#	178536
#
# Disc length: 2576 seconds
#
# Revision: 0
# Processed by: cddbd v1.5.2PL0 Copyright (c) Steve Scherf et al.
# Submitted via: CDex 1.70beta2
#
DISCID=a40a0e0c
DTITLE=Ward McCary - Howdy, Backaroo!
DYEAR=1900
DGENRE=Country
TTITLE0=Howdy, Buckaroo!
TTITLE1=Honey, I Ain't Broke
TTITLE2=Don't Try To Figure It Out
TTITLE3=Win Again
TTITLE4=Swing, Jackie, Swing!
TTITLE5=I Love You Inside 'N' Out
TTITLE6=Walkin' On Eggshells
TTITLE7=A Hug From Inside
TTITLE8=Hold You One More Time
TTITLE9=Little Girl Look
TTITLE10=Is That You I See In Me?
TTITLE11=Soul's Lullaby
EXTD=
EXTT0=
EXTT1=
EXTT2=
EXTT3=
EXTT4=
EXTT5=
EXTT6=
EXTT7=
EXTT8=
EXTT9=
EXTT10=
EXTT11=
PLAYORDER=
